<svg width="88" height="32" viewBox="0 0 88 32" fill="none" xmlns="http://www.w3.org/2000/svg">
<rect x="0.5" y="0.5" width="87" height="31" rx="3.5" fill="white" stroke="#E7E7E7"/>
<path d="M22.6666 10.6667H21.3333C20.9666 10.6667 20.6666 10.9667 20.6666 11.3333V17.3333C20.6666 17.7 20.9666 18 21.3333 18H22.6666V10.6667ZM9.44659 15.4133C9.37325 15.58 9.33325 15.76 9.33325 15.9467V16.6667C9.33325 17.4 9.93325 18 10.6666 18H14.3333L13.7199 21.1C13.6866 21.2467 13.7066 21.4067 13.7733 21.54C13.9266 21.84 14.1199 22.1133 14.3599 22.3533L14.6666 22.6667L18.9399 18.3933C19.1933 18.14 19.3333 17.8 19.3333 17.4467V12.2267C19.3333 11.3667 18.6333 10.6667 17.7733 10.6667H12.3733C11.8999 10.6667 11.4666 10.9133 11.2266 11.3133L9.44659 15.4133Z" fill="#E66464"/>
<path d="M34.8837 10.848C36.0997 10.848 37.1504 11.0773 38.0357 11.536C38.9317 11.984 39.6144 12.6293 40.0837 13.472C40.5637 14.3147 40.8037 15.3067 40.8037 16.448C40.8037 17.5893 40.5637 18.5813 40.0837 19.424C39.6144 20.256 38.9317 20.896 38.0357 21.344C37.1504 21.7813 36.0997 22 34.8837 22H31.4117V10.848H34.8837ZM34.8837 20.8C36.3237 20.8 37.4224 20.4213 38.1797 19.664C38.937 18.896 39.3157 17.824 39.3157 16.448C39.3157 15.0613 38.9317 13.9787 38.1637 13.2C37.4064 12.4213 36.313 12.032 34.8837 12.032H32.8677V20.8H34.8837ZM43.4762 11.808C43.1989 11.808 42.9642 11.712 42.7722 11.52C42.5802 11.328 42.4842 11.0933 42.4842 10.816C42.4842 10.5387 42.5802 10.304 42.7722 10.112C42.9642 9.92 43.1989 9.824 43.4762 9.824C43.7429 9.824 43.9669 9.92 44.1482 10.112C44.3402 10.304 44.4362 10.5387 44.4362 10.816C44.4362 11.0933 44.3402 11.328 44.1482 11.52C43.9669 11.712 43.7429 11.808 43.4762 11.808ZM44.1802 13.232V22H42.7242V13.232H44.1802ZM49.7657 22.144C49.0937 22.144 48.491 22.032 47.9577 21.808C47.4244 21.5733 47.003 21.2533 46.6937 20.848C46.3844 20.432 46.2137 19.9573 46.1817 19.424H47.6857C47.7284 19.8613 47.931 20.2187 48.2937 20.496C48.667 20.7733 49.1524 20.912 49.7497 20.912C50.3044 20.912 50.7417 20.7893 51.0617 20.544C51.3817 20.2987 51.5417 19.9893 51.5417 19.616C51.5417 19.232 51.371 18.9493 51.0297 18.768C50.6884 18.576 50.1604 18.3893 49.4457 18.208C48.795 18.0373 48.2617 17.8667 47.8457 17.696C47.4404 17.5147 47.0884 17.2533 46.7897 16.912C46.5017 16.56 46.3577 16.1013 46.3577 15.536C46.3577 15.088 46.491 14.6773 46.7577 14.304C47.0244 13.9307 47.403 13.6373 47.8937 13.424C48.3844 13.2 48.9444 13.088 49.5737 13.088C50.5444 13.088 51.3284 13.3333 51.9257 13.824C52.523 14.3147 52.843 14.9867 52.8857 15.84H51.4297C51.3977 15.3813 51.211 15.0133 50.8697 14.736C50.539 14.4587 50.091 14.32 49.5257 14.32C49.003 14.32 48.587 14.432 48.2777 14.656C47.9684 14.88 47.8137 15.1733 47.8137 15.536C47.8137 15.824 47.9044 16.064 48.0857 16.256C48.2777 16.4373 48.5124 16.5867 48.7897 16.704C49.0777 16.8107 49.4724 16.9333 49.9737 17.072C50.603 17.2427 51.115 17.4133 51.5097 17.584C51.9044 17.744 52.2404 17.9893 52.5177 18.32C52.8057 18.6507 52.955 19.0827 52.9657 19.616C52.9657 20.096 52.8324 20.528 52.5657 20.912C52.299 21.296 51.9204 21.6 51.4297 21.824C50.9497 22.0373 50.395 22.144 49.7657 22.144ZM56.4771 10.16V22H55.0211V10.16H56.4771ZM59.7106 11.808C59.4332 11.808 59.1986 11.712 59.0066 11.52C58.8146 11.328 58.7186 11.0933 58.7186 10.816C58.7186 10.5387 58.8146 10.304 59.0066 10.112C59.1986 9.92 59.4332 9.824 59.7106 9.824C59.9772 9.824 60.2012 9.92 60.3826 10.112C60.5746 10.304 60.6706 10.5387 60.6706 10.816C60.6706 11.0933 60.5746 11.328 60.3826 11.52C60.2012 11.712 59.9772 11.808 59.7106 11.808ZM60.4146 13.232V22H58.9586V13.232H60.4146ZM67.7921 22L64.3521 18.128V22H62.8961V10.16H64.3521V17.12L67.7281 13.232H69.7601L65.6321 17.6L69.7761 22H67.7921ZM79.1304 17.28C79.1304 17.5573 79.1144 17.8507 79.0824 18.16H72.0744C72.1278 19.024 72.4211 19.7013 72.9544 20.192C73.4984 20.672 74.1544 20.912 74.9224 20.912C75.5518 20.912 76.0744 20.768 76.4904 20.48C76.9171 20.1813 77.2158 19.7867 77.3864 19.296H78.9544C78.7198 20.1387 78.2504 20.8267 77.5464 21.36C76.8424 21.8827 75.9678 22.144 74.9224 22.144C74.0904 22.144 73.3438 21.9573 72.6824 21.584C72.0318 21.2107 71.5198 20.6827 71.1464 20C70.7731 19.3067 70.5864 18.5067 70.5864 17.6C70.5864 16.6933 70.7678 15.8987 71.1304 15.216C71.4931 14.5333 71.9998 14.0107 72.6504 13.648C73.3118 13.2747 74.0691 13.088 74.9224 13.088C75.7544 13.088 76.4904 13.2693 77.1304 13.632C77.7704 13.9947 78.2611 14.496 78.6024 15.136C78.9544 15.7653 79.1304 16.48 79.1304 17.28ZM77.6264 16.976C77.6264 16.4213 77.5038 15.9467 77.2584 15.552C77.0131 15.1467 76.6771 14.8427 76.2504 14.64C75.8344 14.4267 75.3704 14.32 74.8584 14.32C74.1224 14.32 73.4931 14.5547 72.9704 15.024C72.4584 15.4933 72.1651 16.144 72.0904 16.976H77.6264Z" fill="#333333"/>
</svg>
