<svg width="91" height="91" viewBox="0 0 91 91" fill="none" xmlns="http://www.w3.org/2000/svg">
<path d="M83.2409 38.128C83.2409 37.0922 83.201 36.066 83.1291 35.0489C81.6906 35.6261 80.1228 35.9474 78.4804 35.9474C71.5769 35.9474 65.9603 30.3309 65.9603 23.4273C65.9603 20.9183 67.3078 17.8685 70.0598 14.1515C63.8479 11.062 56.8006 9.43215 49.3801 9.70277C25.6459 10.5674 7.10746 30.5096 7.97244 54.2435C8.09899 57.7157 8.63899 61.0746 9.535 64.2795C11.4711 67.9686 13.9573 71.3253 16.8867 74.2379C23.6112 78.5963 31.6277 81.1307 40.2382 81.1307C63.9877 81.1307 83.2409 61.8775 83.2409 38.128ZM55.7498 40.2781C55.7498 37.564 57.9503 35.3635 60.6644 35.3635C63.3786 35.3635 65.5791 37.564 65.5791 40.2781C65.5791 40.9167 65.4535 41.5249 65.2317 42.0849C69.818 43.0555 73.2598 47.1255 73.2598 52.0012C73.2598 57.6005 68.7214 62.1395 63.1221 62.1395C57.5224 62.1395 52.9837 57.6005 52.9837 52.0012C52.9837 48.61 54.6504 45.6099 57.2073 43.7697C56.3079 42.8789 55.7498 41.6438 55.7498 40.2781ZM27.7979 62.1395C22.1983 62.1395 17.6596 57.6005 17.6596 52.0012C17.6596 47.1258 21.1011 43.0558 25.6877 42.0849C25.4659 41.5252 25.3403 40.9167 25.3403 40.2781C25.3403 37.564 27.5408 35.3635 30.2549 35.3635C32.9691 35.3635 35.1696 37.564 35.1696 40.2781C35.1696 41.6438 34.6118 42.8789 33.7121 43.7694C36.269 45.6099 37.9356 48.61 37.9356 52.0012C37.9356 57.6002 33.3973 62.1395 27.7979 62.1395ZM35.2209 63.3153H55.4939V68.23H35.2209V63.3153Z" fill="#FDDA7F"/>
<path d="M83.2409 38.128C83.2409 61.8775 63.9877 81.1307 40.2381 81.1307C31.6276 81.1307 23.6109 78.5963 16.8867 74.2379C24.2219 81.5312 34.3237 86.0454 45.46 86.0454C67.8168 86.0454 86.0054 67.8568 86.0054 45.5C86.0054 41.6601 85.4687 37.9431 84.4665 34.4202C84.0358 34.6561 83.5886 34.864 83.1291 35.0489C83.2009 36.066 83.2409 37.0922 83.2409 38.128Z" fill="#FFC225"/>
<path d="M49.38 9.70247C56.8006 9.43185 63.8482 11.062 70.0597 14.1512C70.1927 13.9715 70.3297 13.7899 70.4692 13.6072C63.5751 8.18936 54.8881 4.95459 45.46 4.95459C23.1031 4.95459 4.91455 23.1432 4.91455 45.5C4.91455 52.273 6.58615 58.6618 9.53495 64.2795C8.63895 61.0746 8.09895 57.7157 7.9724 54.2435C7.10741 30.5096 25.6459 10.5674 49.38 9.70247Z" fill="#FFE9B1"/>
<path d="M33.7122 43.7695C32.8242 44.6489 31.6035 45.1929 30.255 45.1929C28.1795 45.1929 26.4084 43.9043 25.6878 42.085C21.1012 43.0559 17.6597 47.1259 17.6597 52.0012C17.6597 57.6006 22.1981 62.1396 27.798 62.1396C33.3974 62.1396 37.9357 57.6006 37.9357 52.0012C37.9357 48.6101 36.2691 45.61 33.7122 43.7695Z" fill="#FFC225"/>
<path d="M52.9839 52.0012C52.9839 57.6006 57.5223 62.1396 63.1222 62.1396C68.7216 62.1396 73.26 57.6006 73.26 52.0012C73.26 47.1256 69.8182 43.0556 65.2319 42.085C64.5112 43.9043 62.7401 45.1929 60.6646 45.1929C59.3161 45.1929 58.0954 44.6489 57.2074 43.7698C54.6506 45.61 52.9839 48.6101 52.9839 52.0012Z" fill="#FFC225"/>
<path d="M30.255 45.1928C31.6035 45.1928 32.8241 44.6488 33.7122 43.7693C34.6119 42.8789 35.1697 41.6437 35.1697 40.2781C35.1697 37.564 32.9691 35.3634 30.255 35.3634C27.5409 35.3634 25.3403 37.564 25.3403 40.2781C25.3403 40.9167 25.466 41.5249 25.6877 42.0848C26.4084 43.9042 28.1795 45.1928 30.255 45.1928Z" fill="#2B2D42"/>
<path d="M65.2317 42.0848C65.4535 41.5252 65.5791 40.9167 65.5791 40.2781C65.5791 37.564 63.3785 35.3634 60.6644 35.3634C57.9503 35.3634 55.7498 37.564 55.7498 40.2781C55.7498 41.6437 56.3076 42.8789 57.2073 43.7696C58.0953 44.6488 59.316 45.1928 60.6644 45.1928C62.7399 45.1928 64.5111 43.9042 65.2317 42.0848Z" fill="#2B2D42"/>
<path d="M55.494 63.3154H35.2209V68.2301H55.494V63.3154Z" fill="#2B2D42"/>
<path d="M70.875 23.4272C70.875 27.6207 74.2867 31.0327 78.4804 31.0327C82.6736 31.0327 86.0853 27.621 86.0853 23.4272C86.0853 20.757 82.0626 15.5373 78.4814 11.8019C74.8992 15.541 70.875 20.7632 70.875 23.4272Z" fill="#B5F4FF"/>
<path d="M91 23.429C91 20.5026 89.173 16.8437 85.4145 12.2432C82.8297 9.0794 80.278 6.65278 80.1711 6.55111L78.4805 4.94862L76.7902 6.5508C76.7121 6.62452 75.3471 7.92414 73.618 9.83748C65.8695 3.70674 56.085 0.041626 45.4601 0.041626C20.3934 0.041626 0 20.4347 0 45.5017C0 70.5684 20.3934 90.9618 45.4601 90.9618C70.5267 90.9618 90.9201 70.5684 90.9201 45.5017C90.9201 40.3984 90.0745 35.4884 88.5165 30.9051C90.0757 28.8176 91 26.2291 91 23.429ZM86.0055 45.5017C86.0055 67.8585 67.8169 86.0471 45.4601 86.0471C34.3234 86.0471 24.2216 81.533 16.8868 74.2396C13.9577 71.3271 11.4711 67.9703 9.53507 64.2813C6.58627 58.6635 4.91467 52.2747 4.91467 45.5017C4.91467 23.1449 23.1032 4.95629 45.4601 4.95629C54.8882 4.95629 63.5752 8.19107 70.4693 13.6089C70.3298 13.7919 70.1928 13.9735 70.0598 14.1529C67.3079 17.8702 65.9604 20.9198 65.9604 23.4287C65.9604 30.3323 71.5769 35.9488 78.4805 35.9488C80.1229 35.9488 81.6907 35.6275 83.1292 35.0504C83.5887 34.8654 84.0359 34.6575 84.4666 34.4216C85.4688 37.9448 86.0055 41.6618 86.0055 45.5017ZM78.4805 31.0341C74.287 31.0341 70.875 27.6224 70.875 23.4287C70.875 20.7646 74.8992 15.5425 78.4814 11.8034C82.0627 15.5388 86.0853 20.7582 86.0853 23.4287C86.0853 27.6224 82.6736 31.0341 78.4805 31.0341Z" fill="#2B2D42"/>
</svg>
