<svg width="91" height="91" viewBox="0 0 91 91" fill="none" xmlns="http://www.w3.org/2000/svg">
<path d="M73.6566 14.0122C71.3178 13.2653 69.1206 12.9207 67.0742 12.9207C61.2598 12.9207 56.6575 15.7008 53.4356 19.9327C52.6665 20.9426 51.5184 21.4591 50.3725 21.4591C49.3157 21.4591 48.2603 21.0199 47.5064 20.1243C44.064 16.0344 39.5922 13.0073 33.7656 13.0069C31.8903 13.0066 29.8759 13.3203 27.7091 14.0122C21.8913 15.8736 15.9547 22.3849 15.325 31.8035C15.5814 31.7906 15.8374 31.782 16.0915 31.782C19.7409 31.782 23.1604 33.1301 26.08 35.7003C28.8866 33.1271 32.4276 31.7303 36.2272 31.7303C38.0042 31.7303 39.8457 32.0307 41.7034 32.624C44.3056 33.4568 46.7809 35.2004 48.6739 37.5337C50.6807 40.0076 51.9849 43.0479 52.4454 46.3258C53.1635 51.4357 51.8132 56.9575 48.5413 62.2947C46.5738 65.5044 43.9057 68.67 40.5746 71.7677C43.034 73.6478 45.704 75.5458 48.6026 77.4575C49.232 77.8727 49.9564 78.0801 50.6811 78.0801C51.4057 78.0801 52.1303 77.8724 52.7597 77.4575C100.468 45.9911 86.7566 18.2047 73.6566 14.0122Z" fill="#EC526D"/>
<path d="M90.7323 29.472C90.0637 24.608 88.1473 20.1054 85.1904 16.4498C82.4446 13.0553 78.8801 10.5286 75.153 9.33581C72.3987 8.45603 69.6815 8.0108 67.0741 8.0108C60.5762 8.0108 54.6868 10.8112 50.3559 15.9287C45.5978 10.731 40.0228 8.09736 33.7657 8.097C31.3283 8.09665 28.7875 8.51308 26.2148 9.3351C22.4847 10.5284 18.9192 13.0549 16.1725 16.4496C13.215 20.1049 11.298 24.6081 10.6292 29.472C10.4776 30.5749 10.3926 31.6916 10.3699 32.8195C7.97418 33.7133 5.71732 35.3685 3.96113 37.5319C1.95362 40.0054 0.648876 43.0461 0.188012 46.3244C-0.530389 51.4344 0.819857 56.9568 4.09212 62.294C7.71576 68.2043 13.6958 73.9684 21.8661 79.4261C23.1882 80.3093 24.7272 80.7757 26.317 80.7757C27.9069 80.7757 29.4457 80.3093 30.768 79.4261C32.9272 77.9838 34.9284 76.5196 36.7785 75.0375C39.603 77.2338 42.6432 79.4075 45.8996 81.5548C47.3218 82.4929 48.9755 82.9888 50.6814 82.9888C52.3874 82.9888 54.0405 82.4929 55.4631 81.5548C68.858 72.72 78.635 63.442 84.5214 53.9769C89.654 45.7247 91.8017 37.2509 90.7323 29.472ZM50.6808 78.0796C49.9564 78.0796 49.2316 77.8718 48.6024 77.457C45.7037 75.5457 43.0335 73.6473 40.5743 71.7672C43.9049 68.6695 46.5734 65.5039 48.5411 62.2942C51.8132 56.957 53.1631 51.435 52.4452 46.3253C51.9847 43.0472 50.6805 40.0068 48.6737 37.5331C46.7806 35.1998 44.3051 33.4563 41.7031 32.6234C39.8454 32.03 38.0039 31.7298 36.227 31.7298C32.4272 31.7298 28.886 33.1269 26.0798 35.7C23.16 33.1298 19.7407 31.7817 16.0913 31.7817C15.8371 31.7817 15.5814 31.7902 15.3247 31.8032C15.9548 22.3847 21.8915 15.8732 27.7089 14.0118C29.876 13.3195 31.8901 13.0062 33.7653 13.0066C39.592 13.0069 44.0641 16.0341 47.5061 20.1239C48.2601 21.0197 49.3151 21.4587 50.3723 21.4587C51.5181 21.4587 52.6666 20.9422 53.4353 19.9323C56.6573 15.7005 61.2596 12.9204 67.0739 12.9204C69.1204 12.9204 71.3175 13.265 73.6563 14.0118C86.756 18.2044 100.468 45.9908 52.7589 77.4566C52.1301 77.8722 51.4053 78.0796 50.6808 78.0796ZM26.3169 75.8668C25.7161 75.8668 25.1149 75.6928 24.5932 75.3443C-3.69245 56.4497 4.54978 39.8204 12.4294 37.2996C13.7392 36.8814 14.9574 36.6921 16.0909 36.6921C19.3271 36.6921 21.8716 38.2363 23.8775 40.4044C24.4761 41.0516 25.2789 41.3667 26.0856 41.3667C26.966 41.3667 27.8512 40.9913 28.4813 40.2635C30.3939 38.0548 33.0023 36.6398 36.227 36.6398C37.4642 36.6398 38.7924 36.8482 40.2066 37.2996C48.0831 39.8208 56.3249 56.4497 28.0409 75.3443C27.5185 75.6926 26.9176 75.8668 26.3169 75.8668Z" fill="#2B2D42"/>
<path d="M40.2062 37.2995C38.7922 36.8478 37.4638 36.6397 36.2266 36.6397C33.0018 36.6397 30.3935 38.0543 28.4809 40.2634C27.8509 40.9912 26.9657 41.3665 26.0853 41.3665C25.2785 41.3665 24.4757 41.0518 23.8771 40.4043C21.8712 38.2363 19.3267 36.692 16.0906 36.692C14.9573 36.692 13.7391 36.8812 12.4291 37.2995C4.54922 39.8206 -3.69266 56.4496 24.593 75.3441C25.1146 75.6927 25.7157 75.8667 26.3167 75.8667C26.9176 75.8667 27.5183 75.6927 28.0403 75.3441C56.3247 56.4494 48.0827 39.8204 40.2062 37.2995Z" fill="#FFA7B6"/>
</svg>
