<svg width="67" height="32" viewBox="0 0 67 32" fill="none" xmlns="http://www.w3.org/2000/svg">
<rect x="0.5" y="0.5" width="66" height="31" rx="3.5" fill="white" stroke="#E7E7E7"/>
<path d="M32.688 20.816H36.592V22H31.232V10.848H32.688V20.816ZM38.8903 11.808C38.6129 11.808 38.3783 11.712 38.1863 11.52C37.9943 11.328 37.8983 11.0933 37.8983 10.816C37.8983 10.5387 37.9943 10.304 38.1863 10.112C38.3783 9.92 38.6129 9.824 38.8903 9.824C39.1569 9.824 39.3809 9.92 39.5623 10.112C39.7543 10.304 39.8503 10.5387 39.8503 10.816C39.8503 11.0933 39.7543 11.328 39.5623 11.52C39.3809 11.712 39.1569 11.808 38.8903 11.808ZM39.5943 13.232V22H38.1383V13.232H39.5943ZM46.9718 22L43.5318 18.128V22H42.0758V10.16H43.5318V17.12L46.9078 13.232H48.9398L44.8118 17.6L48.9558 22H46.9718ZM58.3101 17.28C58.3101 17.5573 58.2941 17.8507 58.2621 18.16H51.2541C51.3075 19.024 51.6008 19.7013 52.1341 20.192C52.6781 20.672 53.3341 20.912 54.1021 20.912C54.7315 20.912 55.2541 20.768 55.6701 20.48C56.0968 20.1813 56.3955 19.7867 56.5661 19.296H58.1341C57.8995 20.1387 57.4301 20.8267 56.7261 21.36C56.0221 21.8827 55.1475 22.144 54.1021 22.144C53.2701 22.144 52.5235 21.9573 51.8621 21.584C51.2115 21.2107 50.6995 20.6827 50.3261 20C49.9528 19.3067 49.7661 18.5067 49.7661 17.6C49.7661 16.6933 49.9475 15.8987 50.3101 15.216C50.6728 14.5333 51.1795 14.0107 51.8301 13.648C52.4915 13.2747 53.2488 13.088 54.1021 13.088C54.9341 13.088 55.6701 13.2693 56.3101 13.632C56.9501 13.9947 57.4408 14.496 57.7821 15.136C58.1341 15.7653 58.3101 16.48 58.3101 17.28ZM56.8061 16.976C56.8061 16.4213 56.6835 15.9467 56.4381 15.552C56.1928 15.1467 55.8568 14.8427 55.4301 14.64C55.0141 14.4267 54.5501 14.32 54.0381 14.32C53.3021 14.32 52.6728 14.5547 52.1501 15.024C51.6381 15.4933 51.3448 16.144 51.2701 16.976H56.8061Z" fill="#333333"/>
<path d="M8.66675 22H11.3334V14H8.66675V22ZM23.3334 14.6667C23.3334 13.9333 22.7334 13.3333 22.0001 13.3333H17.7934L18.4267 10.2867L18.4467 10.0733C18.4467 9.79999 18.3334 9.54666 18.1534 9.36666L17.4467 8.66666L13.0601 13.06C12.8134 13.3 12.6667 13.6333 12.6667 14V20.6667C12.6667 21.4 13.2667 22 14.0001 22H20.0001C20.5534 22 21.0267 21.6667 21.2267 21.1867L23.2401 16.4867C23.3001 16.3333 23.3334 16.1733 23.3334 16V14.6667Z" fill="#53B3DC"/>
</svg>
